<?xml version="1.0" encoding="UTF-8"?>
<svg width="439px" height="287px" viewBox="0 0 439 287" version="1.1" xmlns="http://www.w3.org/2000/svg" xmlns:xlink="http://www.w3.org/1999/xlink">
    <!-- Generator: Sketch 58 (84663) - https://sketch.com -->
    <title>Group</title>
    <desc>Created with Sketch.</desc>
    <g id="Page-1" stroke="none" stroke-width="1" fill="none" fill-rule="evenodd">
        <g id="Group" fill="#000000" fill-rule="nonzero">
            <path d="M124.913,286.781 L10.913,286.781 C5.39,286.781 0.913,282.303 0.913,276.781 L0.913,162.781 C0.913,157.259 5.39,152.781 10.913,152.781 L124.913,152.781 C130.436,152.781 134.913,157.259 134.913,162.781 L134.913,276.781 C134.913,282.304 130.436,286.781 124.913,286.781 Z M20.913,266.781 L114.913,266.781 L114.913,172.781 L20.913,172.781 L20.913,266.781 Z" id="Shape"></path>
            <path d="M276.92,286.781 L162.92,286.781 C157.397,286.781 152.92,282.303 152.92,276.781 L152.92,162.781 C152.92,157.259 157.397,152.781 162.92,152.781 L276.92,152.781 C282.443,152.781 286.92,157.259 286.92,162.781 L286.92,276.781 C286.92,282.304 282.443,286.781 276.92,286.781 Z M172.92,266.781 L266.92,266.781 L266.92,172.781 L172.92,172.781 L172.92,266.781 L172.92,266.781 Z" id="Shape"></path>
            <path d="M276.92,134.781 L162.92,134.781 C157.397,134.781 152.92,130.303 152.92,124.781 L152.92,10.781 C152.92,5.259 157.397,0.781 162.92,0.781 L276.92,0.781 C282.443,0.781 286.92,5.259 286.92,10.781 L286.92,124.781 C286.92,130.304 282.443,134.781 276.92,134.781 Z M172.92,114.781 L266.92,114.781 L266.92,20.781 L172.92,20.781 L172.92,114.781 L172.92,114.781 Z" id="Shape"></path>
            <path d="M428.909,286.781 L314.909,286.781 C309.386,286.781 304.909,282.303 304.909,276.781 L304.909,162.781 C304.909,157.259 309.386,152.781 314.909,152.781 L428.909,152.781 C434.432,152.781 438.909,157.259 438.909,162.781 L438.909,276.781 C438.909,282.304 434.432,286.781 428.909,286.781 Z M324.909,266.781 L418.909,266.781 L418.909,172.781 L324.909,172.781 L324.909,266.781 Z" id="Shape"></path>
            <path d="M200.919,77.792 C198.361,77.792 195.804,76.817 193.852,74.867 C189.944,70.964 189.941,64.632 193.844,60.724 L212.833,41.713 C214.708,39.836 217.251,38.781 219.905,38.78 L219.908,38.78 C222.56,38.78 225.103,39.834 226.979,41.709 L245.965,60.695 C249.87,64.6 249.87,70.932 245.965,74.838 C242.06,78.742 235.728,78.742 231.822,74.838 L219.911,62.927 L207.992,74.859 C206.042,76.814 203.48,77.792 200.919,77.792 Z" id="Path"></path>
            <path d="M219.92,248.77 C217.365,248.77 214.81,247.797 212.857,245.85 L193.833,226.874 C189.923,222.974 189.915,216.643 193.815,212.732 C197.715,208.821 204.046,208.812 207.957,212.713 L219.915,224.64 L231.853,212.717 C235.761,208.814 242.093,208.818 245.995,212.727 C249.897,216.635 249.893,222.966 245.986,226.87 L226.986,245.846 C225.035,247.795 222.478,248.77 219.92,248.77 Z" id="Path"></path>
            <path d="M371.933,248.769 C369.374,248.769 366.815,247.792 364.862,245.84 C360.957,241.935 360.957,235.603 364.862,231.697 L376.773,219.786 L364.841,207.868 C360.934,203.965 360.93,197.633 364.833,193.725 C368.736,189.818 375.068,189.816 378.976,193.717 L397.986,212.706 C399.863,214.581 400.918,217.125 400.919,219.778 C400.919,222.431 399.866,224.976 397.99,226.852 L379.004,245.838 C377.052,247.792 374.493,248.769 371.933,248.769 Z" id="Path"></path>
            <path d="M67.911,248.77 C65.353,248.77 62.796,247.795 60.844,245.845 L41.833,226.856 C39.956,224.981 38.901,222.437 38.8999993,219.784 C38.899,217.131 39.953,214.586 41.829,212.71 L60.815,193.724 C64.72,189.82 71.052,189.82 74.958,193.724 C78.863,197.629 78.863,203.961 74.958,207.867 L63.046,219.778 L74.978,231.696 C78.885,235.599 78.889,241.93 74.986,245.839 C73.033,247.792 70.472,248.77 67.911,248.77 Z" id="Path"></path>
        </g>
    </g>
</svg>