<?xml version="1.0" encoding="UTF-8"?>
<svg width="26px" height="26px" viewBox="0 0 26 26" version="1.1" xmlns="http://www.w3.org/2000/svg" xmlns:xlink="http://www.w3.org/1999/xlink">
    <!-- Generator: Sketch 58 (84663) - https://sketch.com -->
    <title>noun_left right arrows_1132967</title>
    <desc>Created with Sketch.</desc>
    <g id="Page-1" stroke="none" stroke-width="1" fill="none" fill-rule="evenodd">
        <g id="noun_left-right-arrows_1132967" transform="translate(-5.000000, -6.000000)" fill="#000000">
            <g id="Group" transform="translate(18.848477, 18.562763) rotate(-45.000000) translate(-18.848477, -18.562763) translate(0.848477, 11.062763)">
                <path d="M26.8366516,0.65238669 C26.6791559,1.04017415 26.7723218,1.48472291 27.0722665,1.77664272 L31.4879236,6.19229986 L22.3993222,6.19229986 C24.8568095,6.18705385 21.6833528,6.38194303 21.496352,6.70234051 C21.3093511,7.02273799 21.3093511,7.41900459 21.496352,7.73940208 C21.6833528,8.05979956 22.0283824,8.25468873 22.3993222,8.24944272 L31.4879236,8.24944272 L27.0722665,12.6650999 C26.8041558,12.9232169 26.6963719,13.3060211 26.7904183,13.6661086 C26.8844647,14.0261961 27.1656731,14.3074046 27.5257607,14.401451 C27.8858482,14.4954974 28.2686523,14.3877134 28.5267694,14.1196027 L34.6077865,8.03858558 C34.8623937,7.84455578 35.012161,7.54305511 35.0129872,7.22294299 C35.0137359,6.90283088 34.8654536,6.60059705 34.6118041,6.40531701 C34.6098,6.40397067 34.6077912,6.40263139 34.6057777,6.4012992 L28.5267148,0.322236345 C28.333063,0.12317494 28.0671514,0.0107912932 27.7894348,0.0107912932 C27.3708983,0.0107912932 26.9941474,0.264599232 26.8366516,0.65238669 Z" id="Path"></path>
                <path d="M6.48618851,0.311895293 L0.40517137,6.39291244 C0.150564141,6.58694219 0.000796778082,6.88844283 -1.20498635e-05,7.20855495 C-0.000778200136,7.52866706 0.147503951,7.83090092 0.401153462,8.02618101 C0.403157678,8.02752728 0.405166628,8.02886648 0.407180273,8.03019861 L6.48624313,14.1092615 C6.74436016,14.3773722 7.12716433,14.4851561 7.48725184,14.3911097 C7.84733935,14.2970633 8.12854782,14.0158548 8.22259423,13.6557673 C8.31664063,13.2956798 8.20885667,12.9128756 7.94074599,12.6547586 L3.52508884,8.23910146 L12.6136903,8.23910146 C12.9846301,8.24434748 13.3296597,8.0494583 13.5166605,7.72906082 C13.7036613,7.40866334 13.7036613,7.01239674 13.5166605,6.69199925 C13.3296597,6.37160177 12.9846301,6.1767126 12.6136903,6.18195861 L3.52508884,6.18195861 L7.94074599,1.76630146 C8.24495885,1.4705967 8.33642973,1.0184618 8.1710828,0.627760939 C8.00573586,0.23706008 7.61749123,-0.0120563527 7.19342713,0.00045003607 C6.92610911,0.00846941374 6.67248408,0.120152963 6.48618851,0.311895293 Z" id="Path"></path>
            </g>
            <g id="Group" transform="translate(18.848477, 18.865809) scale(1, -1) rotate(-45.000000) translate(-18.848477, -18.865809) translate(0.848477, 11.365809)">
                <path d="M26.8366516,0.65238669 C26.6791559,1.04017415 26.7723218,1.48472291 27.0722665,1.77664272 L31.4879236,6.19229986 L22.3993222,6.19229986 C22.0283824,6.18705385 21.6833528,6.38194303 21.496352,6.70234051 C21.3093511,7.02273799 21.3093511,7.41900459 21.496352,7.73940208 C21.6833528,8.05979956 22.0283824,8.25468873 22.3993222,8.24944272 L31.4879236,8.24944272 L27.0722665,12.6650999 C26.8041558,12.9232169 26.6963719,13.3060211 26.7904183,13.6661086 C26.8844647,14.0261961 27.1656731,14.3074046 27.5257607,14.401451 C27.8858482,14.4954974 28.2686523,14.3877134 28.5267694,14.1196027 L34.6077865,8.03858558 C34.8623937,7.84455578 35.012161,7.54305511 35.0129756,7.22294299 C35.0137359,6.90283088 34.8654536,6.60059705 34.6118041,6.40531701 C34.6098,6.40397067 34.6077912,6.40263139 34.6057777,6.4012992 L28.5267148,0.322236345 C28.333063,0.12317494 28.0671514,0.0107912932 27.7894348,0.0107912932 C27.3708983,0.0107912932 26.9941474,0.264599232 26.8366516,0.65238669 Z" id="Path"></path>
                <path d="M6.48618851,0.311895293 L0.40517137,6.39291244 C0.150564141,6.58694219 0.000796778082,6.88844283 -1.20498636e-05,7.20855495 C-0.000778200136,7.52866706 0.147503951,7.83090092 0.401153462,8.02618101 C0.403157678,8.02752728 0.405166628,8.02886648 0.407180273,8.03019861 L6.48624313,14.1092615 C6.74436016,14.3773722 7.12716433,14.4851561 7.48725184,14.3911097 C7.84733935,14.2970633 8.12854782,14.0158548 8.22259423,13.6557673 C8.31664063,13.2956798 8.20885667,12.9128756 7.94074599,12.6547586 L3.52508884,8.23910146 L12.6136903,8.23910146 C12.9846301,8.24434748 13.3296597,8.0494583 13.5166605,7.72906082 C13.7036613,7.40866334 13.7036613,7.01239674 13.5166605,6.69199925 C13.3296597,6.37160177 12.9846301,6.1767126 12.6136903,6.18195861 L3.52508884,6.18195861 L7.94074599,1.76630146 C8.24495885,1.4705967 8.33642973,1.0184618 8.1710828,0.627760939 C8.00573586,0.23706008 7.61749123,-0.0120563527 7.19342713,0.00045003607 C6.92610911,0.00846941374 6.67248408,0.120152963 6.48618851,0.311895293 Z" id="Path"></path>
            </g>
        </g>
    </g>
</svg>