<?xml version="1.0" encoding="UTF-8"?>
<svg width="28px" height="28px" viewBox="0 0 28 28" version="1.1" xmlns="http://www.w3.org/2000/svg" xmlns:xlink="http://www.w3.org/1999/xlink">
    <!-- Generator: Sketch 58 (84663) - https://sketch.com -->
    <title>noun_help_1126702</title>
    <desc>Created with Sketch.</desc>
    <g id="Page-1" stroke="none" stroke-width="1" fill="none" fill-rule="evenodd">
        <g id="noun_help_1126702" transform="translate(-2.000000, -2.000000)">
            <rect id="Rectangle" x="0" y="0" width="32" height="32"></rect>
            <circle id="Oval" fill="#000000" cx="16" cy="23" r="1"></circle>
            <path d="M16,2 C8.2799,2 2,8.2799 2,16 C2,23.7201 8.2799,30 16,30 C23.7201,30 30,23.7201 30,16 C30,8.2799 23.7201,2 16,2 Z M16,4 C22.6393,4 28,9.3607 28,16 C28,22.6393 22.6393,28 16,28 C9.3607,28 4,22.6393 4,16 C4,9.3607 9.3607,4 16,4 Z" id="Shape" fill="#000000"></path>
            <path d="M16,8 C13.2509,8 11,10.2509 11,13 C10.9948997,13.3606359 11.1843753,13.6960814 11.4958728,13.8778877 C11.8073704,14.0596941 12.1926296,14.0596941 12.5041272,13.8778877 C12.8156247,13.6960814 13.0051003,13.3606359 13,13 C13,11.3331 14.3331,10 16,10 C17.6669,10 19,11.3331 19,13 C19,14.6669 17.6669,16 16,16 C15.4477381,16.0000552 15.0000552,16.4477381 15,17 L15,19 C14.9948997,19.3606359 15.1843753,19.6960814 15.4958728,19.8778877 C15.8073704,20.0596941 16.1926296,20.0596941 16.5041272,19.8778877 C16.8156247,19.6960814 17.0051003,19.3606359 17,19 L17,17.7969 C19.258,17.31716 21,15.3951 21,13 C21,10.2509 18.7491,8 16,8 Z" id="Path" fill="#000000"></path>
        </g>
    </g>
</svg>