<?xml version="1.0" encoding="UTF-8"?>
<svg width="27px" height="27px" viewBox="0 0 27 27" version="1.1" xmlns="http://www.w3.org/2000/svg" xmlns:xlink="http://www.w3.org/1999/xlink">
    <!-- Generator: Sketch 58 (84663) - https://sketch.com -->
    <title>noun_left right arrows_1132967 copy</title>
    <desc>Created with Sketch.</desc>
    <g id="Page-1" stroke="none" stroke-width="1" fill="none" fill-rule="evenodd">
        <g id="noun_left-right-arrows_1132967-copy" transform="translate(-5.000000, -4.000000)" fill="#000000">
            <path d="M24.5061538,3.59477133 C24.3486581,3.98255878 24.441824,4.42710755 24.7417687,4.71902736 L29.1574259,9.1346845 L20.0688244,9.1346845 C22.5263117,9.12943849 19.352855,9.32432766 19.1658542,9.64472515 C18.9788534,9.96512263 18.9788534,10.3613892 19.1658542,10.6817867 C19.352855,11.0021842 19.6978846,11.1970734 20.0688244,11.1918274 L29.1574259,11.1918274 L24.7417687,15.6074845 C24.473658,15.8656015 24.3658741,16.2484057 24.4599205,16.6084932 C24.5539669,16.9685807 24.8351754,17.2497892 25.1952629,17.3438356 C25.5553504,17.437882 25.9381546,17.330098 26.1962716,17.0619874 L32.2772887,10.9809702 C32.5318959,10.7869404 32.6816632,10.4854397 32.6824894,10.1653276 C32.6832381,9.84521551 32.5349559,9.54298168 32.2813063,9.34770164 C32.2793022,9.34635531 32.2772934,9.34501603 32.2752799,9.34368384 L26.1962171,3.26462098 C26.0025653,3.06555958 25.7366536,2.95317593 25.4589371,2.95317593 C25.0404006,2.95317593 24.6636496,3.20698387 24.5061538,3.59477133 Z" id="Path" transform="translate(25.854046, 10.165212) rotate(135.000000) translate(-25.854046, -10.165212) "></path>
            <path d="M10.4032746,18.3584141 L4.32225743,24.4394313 C4.0676502,24.633461 3.91788284,24.9349616 3.91707401,25.2550738 C3.91630786,25.5751859 4.06459001,25.8774197 4.31823952,26.0726998 C4.32024374,26.0740461 4.32225269,26.0753853 4.32426633,26.0767174 L10.4033292,32.1557803 C10.6614462,32.423891 11.0442504,32.5316749 11.4043379,32.4376285 C11.7644254,32.3435821 12.0456339,32.0623736 12.1396803,31.7022861 C12.2337267,31.3421986 12.1259427,30.9593945 11.857832,30.7012774 L7.4421749,26.2856203 L16.5307763,26.2856203 C16.9017161,26.2908663 17.2467458,26.0959771 17.4337466,25.7755796 C17.6207474,25.4551822 17.6207474,25.0589156 17.4337466,24.7385181 C17.2467458,24.4181206 16.9017161,24.2232314 16.5307763,24.2284774 L7.4421749,24.2284774 L11.857832,19.8128203 C12.1620449,19.5171155 12.2535158,19.0649806 12.0881689,18.6742798 C11.9228219,18.2835789 11.5345773,18.0344625 11.1105132,18.0469689 C10.8431952,18.0549882 10.5895701,18.1666718 10.4032746,18.3584141 Z" id="Path" transform="translate(10.745536, 25.258779) rotate(135.000000) translate(-10.745536, -25.258779) "></path>
            <path d="M24.5061555,18.6929155 C24.3486598,19.080703 24.4418257,19.5252517 24.7417704,19.8171716 L29.1574276,24.2328287 L20.0688261,24.2328287 C19.6978863,24.2275827 19.3528567,24.4224719 19.1658559,24.7428693 C18.9788551,25.0632668 18.9788551,25.4595334 19.1658559,25.7799309 C19.3528567,26.1003284 19.6978863,26.2952176 20.0688261,26.2899716 L29.1574276,26.2899716 L24.7417704,30.7056287 C24.4736597,30.9637457 24.3658758,31.3465499 24.4599222,31.7066374 C24.5539686,32.0667249 24.835177,32.3479334 25.1952646,32.4419798 C25.5553521,32.5360262 25.9381562,32.4282422 26.1962733,32.1601316 L32.2772904,26.0791144 C32.5318976,25.8850846 32.6816649,25.5835839 32.6824796,25.2634718 C32.6832398,24.9433597 32.5349576,24.6411259 32.281308,24.4458458 C32.2793039,24.4444995 32.2772951,24.4431602 32.2752816,24.441828 L26.1962188,18.3627652 C26.002567,18.1637038 25.7366553,18.0513201 25.4589388,18.0513201 C25.0404022,18.0513201 24.6636513,18.3051281 24.5061555,18.6929155 Z" id="Path" transform="translate(25.854042, 25.263356) scale(1, -1) rotate(135.000000) translate(-25.854042, -25.263356) "></path>
            <path d="M10.4032746,3.26942657 L4.32225743,9.35044371 C4.0676502,9.54447346 3.91788284,9.84597411 3.91707401,10.1660862 C3.91630786,10.4861983 4.06459001,10.7884322 4.31823952,10.9837123 C4.32024374,10.9850586 4.32225269,10.9863978 4.32426633,10.9877299 L10.4033292,17.0667927 C10.6614462,17.3349034 11.0442504,17.4426874 11.4043379,17.348641 C11.7644254,17.2545946 12.0456339,16.9733861 12.1396803,16.6132986 C12.2337267,16.2532111 12.1259427,15.8704069 11.857832,15.6122899 L7.4421749,11.1966327 L16.5307763,11.1966327 C16.9017161,11.2018788 17.2467458,11.0069896 17.4337466,10.6865921 C17.6207474,10.3661946 17.6207474,9.96992801 17.4337466,9.64953053 C17.2467458,9.32913304 16.9017161,9.13424387 16.5307763,9.13948988 L7.4421749,9.13948988 L11.857832,4.72383274 C12.1620449,4.42812798 12.2535158,3.97599307 12.0881689,3.58529221 C11.9228219,3.19459135 11.5345773,2.94547492 11.1105132,2.95798131 C10.8431952,2.96600069 10.5895701,3.07768424 10.4032746,3.26942657 Z" id="Path" transform="translate(10.745536, 10.169792) scale(1, -1) rotate(135.000000) translate(-10.745536, -10.169792) "></path>
        </g>
    </g>
</svg>