<?xml version="1.0" encoding="UTF-8"?>
<svg width="1944px" height="972px" viewBox="0 0 1944 972" version="1.1" xmlns="http://www.w3.org/2000/svg" xmlns:xlink="http://www.w3.org/1999/xlink">
    <!-- Generator: Sketch 57.1 (83088) - https://sketch.com -->
    <title>logo</title>
    <desc>Created with Sketch.</desc>
    <g id="Page-1" stroke="none" stroke-width="1" fill="none" fill-rule="evenodd">
        <g id="logo">
            <rect id="Rectangle-Copy-251" fill="#000000" x="0" y="0" width="1944" height="972"></rect>
            <g id="text" transform="translate(318.509998, 256.684000)" fill-rule="nonzero">
                <path d="M47.5995012,22.3314018 C78.4563013,22.3314018 81.714101,48.1845012 81.7193001,58.8237007 C81.7193001,68.6504002 78.2665004,95.3159996 47.6606013,95.3159996 C33.9560016,95.3159996 25.633401,91.4770998 20.6947003,85.1318001 L19.7912007,85.1318001 L19.7912007,95.3159996 L-6.82121026e-13,95.3159996 L-6.82121026e-13,1.35459976 L19.7912007,1.35459976 L19.7912007,33.0486002 L20.8962007,33.0486002 C25.8531013,26.5837007 34.1107019,22.3313998 47.5995012,22.3313998 L47.5995012,22.3314018 Z M41.9133005,78.301601 C60.7113013,78.301601 62.8264018,64.0678983 62.8264018,58.8236987 C62.8264018,53.1452997 60.8231013,39.3458005 41.8782019,39.3458005 C24.7949014,39.3458005 21.3044006,48.945 21.3044006,58.8237007 C21.3044006,69.8594006 24.7988013,78.301601 41.9133005,78.301601 Z M130.917804,22.3704002 C136.234803,22.3704002 140.461102,23.4623994 143.882703,24.2150986 L140.731502,42.8843987 C138.888103,42.3682985 133.888302,41.2593987 127.634002,41.2593987 C112.966102,41.2593987 108.585103,52.7110982 108.585103,62.5897989 L108.585103,95.3159996 L88.790002,95.3159996 L88.790002,22.3704002 L108.585103,22.3704002 L108.585103,33.0876006 L109.818803,33.0876006 C113.881303,26.1013998 118.381903,22.3704002 130.917802,22.3704002 L130.917804,22.3704002 Z M170.622401,95.3159996 L150.930002,95.3159996 L150.930002,22.8045998 L170.622401,22.8045998 L170.622401,95.3159996 Z M170.622401,17.6162993 L150.930002,17.6162993 L150.930002,-7.81597009e-13 L170.622401,-7.81597009e-13 L170.622401,17.6162993 Z M239.502902,1.35459976 L259.299304,1.35459976 L259.299304,95.3159996 L239.508103,95.3159996 L239.508103,85.1318001 L238.604604,85.1318001 C233.665903,91.4770998 225.343302,95.3159996 211.638703,95.3159996 C181.027603,95.3159996 177.580002,68.6504002 177.580002,58.8237007 C177.580002,48.1845012 180.837802,22.3314018 211.694602,22.3314018 C225.184702,22.3314018 233.438403,26.5798009 238.394002,33.0486002 L239.502902,33.0486002 L239.502902,1.35459976 Z M217.378204,78.301601 C234.495304,78.301601 237.985804,69.8594006 237.985804,58.8237007 C237.985804,48.945 234.491404,39.3458005 217.412003,39.3458005 C198.463204,39.3458005 196.463803,53.1452997 196.463803,58.8236987 C196.463803,64.0678983 198.584103,78.301601 217.378204,78.301601 Z M328.292902,23.1620958 L348.093204,23.1620958 L348.093204,88.2920958 C348.093204,103.291496 345.290404,130.412096 309.034704,130.412096 C276.269505,130.412096 269.994405,112.713896 269.994405,101.877096 L289.595804,101.877096 C290.052104,105.809596 293.516603,113.341796 308.935903,113.341796 C322.288204,113.341796 328.298103,104.575897 328.298103,91.2677977 L328.298103,85.962498 L327.394604,85.962498 C322.455903,92.3077977 314.133302,96.1466975 300.428703,96.1466975 C269.817603,96.1466975 266.370002,69.4810982 266.370002,59.6543987 C266.370002,49.019099 269.627802,23.1620958 300.484602,23.1620958 C313.974702,23.1620958 322.228403,27.4144006 327.184002,33.8793001 L328.292902,33.8793001 L328.292902,23.1620958 Z M306.168204,79.1322969 C323.285304,79.1322969 326.775804,70.6939964 326.775804,59.6543967 C326.775804,49.775696 323.281404,40.1764964 306.202003,40.1764964 C287.253204,40.1764964 285.253803,53.9759956 285.253803,59.6543947 C285.253803,64.8985942 287.374103,79.1322969 306.168204,79.1322969 Z M432.563302,63.4230994 L432.563308,63.4283005 L374.379207,63.4283005 C375.733807,73.1770012 381.566907,78.009101 394.364107,78.009101 C406.181106,78.009101 412.032405,74.7253017 413.851106,69.9361021 L433.010507,69.9361021 C430.985107,85.5920012 418.321806,95.3160016 394.364107,95.3160016 C369.362506,95.3160016 355.160006,82.7463013 355.160006,58.4753017 C355.160006,34.6528017 369.723906,21.635901 394.364105,21.635901 C404.686104,21.635901 412.891703,24.2190004 419.060203,28.5141995 L419.060203,28.4881979 C433.156102,37.992498 434.419702,53.4247989 433.290002,63.4230994 L432.563302,63.4230994 Z M394.364107,38.9427997 C383.428508,38.9427997 377.418608,42.9662993 375.135808,50.3593987 L413.640509,50.3593987 C412.023308,44.8954988 408.447009,38.9427997 394.364109,38.9427997 L394.364107,38.9427997 Z M512.353401,39.2222989 L512.353403,65.1559976 L512.348204,65.1559976 L512.353403,66.6171983 C512.353403,77.2264984 517.120503,75.692498 536.026402,74.6693987 L536.026402,93.966599 C536.026402,93.966599 532.139403,95.3159996 512.348202,95.3159996 C492.557001,95.3159996 492.557001,79.0543001 492.557001,68.4488998 L492.557001,39.2222989 L482.820002,39.2222989 L482.820002,22.5601991 L492.557001,22.5601991 L492.557001,1.49629929 L512.353401,1.49629929 L512.353401,22.5601991 L536.030302,22.5601991 L536.030302,39.2222989 L512.353401,39.2222989 Z M583.689602,20.9988998 C605.806502,20.9988998 624.367902,32.8977997 624.367902,58.1580994 C624.367902,83.7525 605.806502,95.3159996 583.689602,95.3159996 C561.571402,95.3159996 543.010002,83.3872003 543.010002,58.1580994 C543.010002,33.0784996 561.571402,20.9988998 583.689602,20.9988998 Z M583.689602,77.252502 C596.082502,77.252502 604.912102,71.3895012 604.912102,58.1529002 C604.912102,44.7070012 596.082502,39.0546017 583.689602,39.0546017 C571.295402,39.0546017 562.465802,44.483401 562.465802,58.1529002 C562.465802,71.8366995 571.295402,77.252502 583.689602,77.252502 Z" id="bridgeto-copy" fill="#FFFFFF"></path>
                <path d="M763.242802,22.3794992 L732.262502,52.845002 L762.967202,95.3160016 L738.388101,95.3160016 L717.896201,66.9695012 L703.692401,80.9406013 L703.692401,95.1015004 L684.000002,95.1015004 L684.000002,1.40139984 L703.692401,1.40139984 L703.692401,54.0994992 L735.838801,22.3794992 L763.242802,22.3794992 Z M833.396002,22.4679002 L854.309099,22.4679002 L815.7407,123.136002 L794.8315,123.136002 L805.453801,95.4044006 L798.429901,95.4044006 L770.320002,22.4679002 L791.229202,22.4679002 L812.375002,77.3370012 L833.396002,22.4679002 Z M901.999602,20.9988998 C924.116502,20.9988998 942.677902,32.8977997 942.677902,58.1580994 C942.677902,83.7525 924.116502,95.3159996 901.999602,95.3159996 C879.881402,95.3159996 861.320002,83.3872003 861.320002,58.1580994 C861.320002,33.0784996 879.881402,20.9988998 901.999602,20.9988998 Z M901.999602,77.252502 C914.392502,77.252502 923.222102,71.3895012 923.222102,58.1529002 C923.222102,44.7070012 914.392502,39.0546017 901.999602,39.0546017 C889.605402,39.0546017 880.775802,44.483401 880.775802,58.1529002 C880.775802,71.8366995 889.605402,77.252502 901.999602,77.252502 Z M979.253401,39.2222989 L979.253403,65.1559976 L979.248204,65.1559976 L979.253403,66.6171983 C979.253403,77.2264984 984.020503,75.692498 1002.9264,74.6693987 L1002.9264,93.966599 C1002.9264,93.966599 999.039403,95.3159996 979.248202,95.3159996 C959.457001,95.3159996 959.457001,79.0543001 959.457001,68.4488998 L959.457001,39.2222989 L949.720002,39.2222989 L949.720002,22.5601991 L959.457001,22.5601991 L959.457001,1.49629929 L979.253401,1.49629929 L979.253401,22.5601991 L1002.9303,22.5601991 L1002.9303,39.2222989 L979.253401,39.2222989 Z M1050.5896,20.9988998 C1072.7065,20.9988998 1091.2679,32.8977997 1091.2679,58.1580994 C1091.2679,83.7525 1072.7065,95.3159996 1050.5896,95.3159996 C1028.4714,95.3159996 1009.91,83.3872003 1009.91,58.1580994 C1009.91,33.0784996 1028.4714,20.9988998 1050.5896,20.9988998 Z M1050.5896,77.252502 C1062.9825,77.252502 1071.8121,71.3895012 1071.8121,58.1529002 C1071.8121,44.7070012 1062.9825,39.0546017 1050.5896,39.0546017 C1038.1954,39.0546017 1029.3658,44.483401 1029.3658,58.1529002 C1029.3658,71.8366995 1038.1954,77.252502 1050.5896,77.252502 Z" id="kyoto-copy-24" fill="#00D8FF"></path>
            </g>
            <g id="bridge" transform="translate(319.000000, 544.914513)">
                <rect id="Rectangle-Copy-252" fill="#00D8FF" x="396" y="62.0854871" width="877" height="20"></rect>
                <rect id="Rectangle-Copy-253" fill="#FFFFFF" x="0" y="125.085487" width="653" height="20"></rect>
                <rect id="Rectangle-Copy-254" fill="#00D8FF" x="653" y="125.085487" width="664" height="20"></rect>
                <rect id="Rectangle-Copy-255" fill="#00D8FF" x="474" y="-8.70414851e-14" width="751" height="18.1709742"></rect>
                <rect id="Rectangle-Copy-256" fill="#00D8FF" transform="translate(999.702479, 70.085487) rotate(-90.000000) translate(-999.702479, -70.085487) " x="944.702479" y="48.3830077" width="110" height="43.4049587"></rect>
                <rect id="Rectangle-Copy-257" fill="#00D8FF" transform="translate(674.702479, 70.085487) rotate(-90.000000) translate(-674.702479, -70.085487) " x="619.702479" y="48.3830077" width="110" height="43.4049587"></rect>
            </g>
        </g>
    </g>
</svg>