<?xml version="1.0" encoding="UTF-8"?>
<svg preserveAspectRatio="xMinYMin meet" width="1944px" height="972px" viewBox="0 0 1944 972" version="1.1" xmlns="http://www.w3.org/2000/svg" xmlns:xlink="http://www.w3.org/1999/xlink">
    <!-- Generator: Sketch 57.1 (83088) - https://sketch.com -->
    <title>Group 8 Copy</title>
    <desc>Created with Sketch.</desc>
    <g id="Page-1" stroke="none" stroke-width="1" fill="none" fill-rule="evenodd">
        <g id="Group-8-Copy">
            <rect id="Rectangle-Copy-227" fill="#000" x="0" y="0" width="1944" height="972"></rect>
            <path d="M366.109499,279.015402 C396.966299,279.015402 400.224099,304.868502 400.229298,315.507701 C400.229298,325.334401 396.776498,352 366.170599,352 C352.466,352 344.143399,348.1611 339.204698,341.8158 L338.301199,341.8158 L338.301199,352 L318.509998,352 L318.509998,258.0386 L338.301199,258.0386 L338.301199,289.732601 L339.406199,289.732601 C344.363099,283.267701 352.6207,279.0154 366.109499,279.0154 L366.109499,279.015402 Z M360.423298,334.985601 C379.221299,334.985601 381.3364,320.751899 381.3364,315.507699 C381.3364,309.8293 379.333099,296.029801 360.3882,296.029801 C343.304899,296.029801 339.814399,305.629 339.814399,315.507701 C339.814399,326.543401 343.308799,334.985601 360.423298,334.985601 Z M449.427802,279.054401 C454.744801,279.054401 458.9711,280.1464 462.392701,280.899099 L459.2415,299.568399 C457.398101,299.052299 452.3983,297.943399 446.144,297.943399 C431.4761,297.943399 427.095101,309.395099 427.095101,319.273799 L427.095101,352 L407.3,352 L407.3,279.054401 L427.095101,279.054401 L427.095101,289.771601 L428.328801,289.771601 C432.391301,282.7854 436.891901,279.054401 449.4278,279.054401 L449.427802,279.054401 Z M489.132399,352 L469.44,352 L469.44,279.4886 L489.132399,279.4886 L489.132399,352 Z M489.132399,274.3003 L469.44,274.3003 L469.44,256.684 L489.132399,256.684 L489.132399,274.3003 Z M558.0129,258.0386 L577.809302,258.0386 L577.809302,352 L558.018101,352 L558.018101,341.8158 L557.114602,341.8158 C552.175901,348.1611 543.8533,352 530.148701,352 C499.537601,352 496.09,325.334401 496.09,315.507701 C496.09,304.868502 499.3478,279.015402 530.2046,279.015402 C543.6947,279.015402 551.948401,283.263801 556.904,289.732601 L558.0129,289.732601 L558.0129,258.0386 Z M535.888202,334.985601 C553.005302,334.985601 556.495802,326.543401 556.495802,315.507701 C556.495802,305.629 553.001402,296.029801 535.922001,296.029801 C516.973202,296.029801 514.973801,309.8293 514.973801,315.507699 C514.973801,320.751899 517.094101,334.985601 535.888202,334.985601 Z M646.8029,279.846096 L666.603202,279.846096 L666.603202,344.976096 C666.603202,359.975497 663.800402,387.096096 627.544702,387.096096 C594.779503,387.096096 588.504403,369.397896 588.504403,358.561096 L608.105802,358.561096 C608.562102,362.493596 612.026601,370.025797 627.445901,370.025797 C640.798202,370.025797 646.808101,361.259897 646.808101,347.951798 L646.808101,342.646498 L645.904602,342.646498 C640.965901,348.991798 632.6433,352.830698 618.938701,352.830698 C588.327601,352.830698 584.88,326.165099 584.88,316.338399 C584.88,305.703099 588.1378,279.846096 618.9946,279.846096 C632.4847,279.846096 640.738401,284.098401 645.694,290.5633 L646.8029,290.5633 L646.8029,279.846096 Z M624.678202,335.816297 C641.795302,335.816297 645.285802,327.377997 645.285802,316.338397 C645.285802,306.459696 641.791402,296.860497 624.712001,296.860497 C605.763202,296.860497 603.763801,310.659996 603.763801,316.338395 C603.763801,321.582595 605.884101,335.816297 624.678202,335.816297 Z M751.0733,320.1071 L751.073306,320.112301 L692.889205,320.112301 C694.243805,329.861002 700.076905,334.693101 712.874105,334.693101 C724.691104,334.693101 730.542403,331.409302 732.361104,326.620103 L751.520505,326.620103 C749.495105,342.276002 736.831804,352.000002 712.874105,352.000002 C687.872504,352.000002 673.670004,339.430302 673.670004,315.159302 C673.670004,291.336802 688.233904,278.319901 712.874103,278.319901 C723.196102,278.319901 731.401702,280.903001 737.570201,285.1982 L737.570201,285.172198 C751.6661,294.676498 752.9297,310.108799 751.8,320.1071 L751.0733,320.1071 Z M712.874105,295.6268 C701.938506,295.6268 695.928606,299.6503 693.645806,307.043399 L732.150507,307.043399 C730.533306,301.579499 726.957007,295.6268 712.874107,295.6268 L712.874105,295.6268 Z M830.863399,295.906299 L830.863401,321.839998 L830.858202,321.839998 L830.863401,323.301199 C830.863401,333.910499 835.630501,332.376498 854.5364,331.353399 L854.5364,350.650599 C854.5364,350.650599 850.649401,352 830.8582,352 C811.066999,352 811.066999,335.7383 811.066999,325.1329 L811.066999,295.906299 L801.33,295.906299 L801.33,279.2442 L811.066999,279.2442 L811.066999,258.1803 L830.863399,258.1803 L830.863399,279.2442 L854.5403,279.2442 L854.5403,295.906299 L830.863399,295.906299 Z M902.1996,277.6829 C924.3165,277.6829 942.8779,289.5818 942.8779,314.8421 C942.8779,340.4365 924.3165,352 902.1996,352 C880.0814,352 861.52,340.071201 861.52,314.8421 C861.52,289.7625 880.0814,277.6829 902.1996,277.6829 Z M902.1996,333.936502 C914.5925,333.936502 923.4221,328.073502 923.4221,314.836901 C923.4221,301.391002 914.5925,295.738602 902.1996,295.738602 C889.8054,295.738602 880.9758,301.167401 880.9758,314.836901 C880.9758,328.5207 889.8054,333.936502 902.1996,333.936502 Z" id="bridgeto" fill="#FFFFFF" fill-rule="nonzero"></path>
            <path d="M1081.7528,279.0635 L1050.7725,309.529002 L1081.4772,352.000002 L1056.8981,352.000002 L1036.4062,323.653502 L1022.2024,337.624602 L1022.2024,351.785501 L1002.51,351.785501 L1002.51,258.0854 L1022.2024,258.0854 L1022.2024,310.7835 L1054.3488,279.0635 L1081.7528,279.0635 Z M1151.906,279.151901 L1172.8191,279.151901 L1134.2507,379.820002 L1113.3415,379.820002 L1123.9638,352.088401 L1116.9399,352.088401 L1088.83,279.151901 L1109.7392,279.151901 L1130.885,334.021002 L1151.906,279.151901 Z M1220.5096,277.6829 C1242.6265,277.6829 1261.1879,289.5818 1261.1879,314.8421 C1261.1879,340.4365 1242.6265,352 1220.5096,352 C1198.3914,352 1179.83,340.071201 1179.83,314.8421 C1179.83,289.7625 1198.3914,277.6829 1220.5096,277.6829 Z M1220.5096,333.936502 C1232.9025,333.936502 1241.7321,328.073502 1241.7321,314.836901 C1241.7321,301.391002 1232.9025,295.738602 1220.5096,295.738602 C1208.1154,295.738602 1199.2858,301.167401 1199.2858,314.836901 C1199.2858,328.5207 1208.1154,333.936502 1220.5096,333.936502 Z M1297.7634,295.906299 L1297.7634,321.839998 L1297.7582,321.839998 L1297.7634,323.301199 C1297.7634,333.910499 1302.5305,332.376498 1321.4364,331.353399 L1321.4364,350.650599 C1321.4364,350.650599 1317.5494,352 1297.7582,352 C1277.967,352 1277.967,335.7383 1277.967,325.1329 L1277.967,295.906299 L1268.23,295.906299 L1268.23,279.2442 L1277.967,279.2442 L1277.967,258.1803 L1297.7634,258.1803 L1297.7634,279.2442 L1321.4403,279.2442 L1321.4403,295.906299 L1297.7634,295.906299 Z M1369.0996,277.6829 C1391.2165,277.6829 1409.7779,289.5818 1409.7779,314.8421 C1409.7779,340.4365 1391.2165,352 1369.0996,352 C1346.9814,352 1328.42,340.071201 1328.42,314.8421 C1328.42,289.7625 1346.9814,277.6829 1369.0996,277.6829 Z M1369.0996,333.936502 C1381.4925,333.936502 1390.3221,328.073502 1390.3221,314.836901 C1390.3221,301.391002 1381.4925,295.738602 1369.0996,295.738602 C1356.7054,295.738602 1347.8758,301.167401 1347.8758,314.836901 C1347.8758,328.5207 1356.7054,333.936502 1369.0996,333.936502 Z" id="kyoto" fill="#00ADCC" fill-rule="nonzero"></path>
            <rect id="Rectangle-Copy-237" fill="#00ADCC" x="715" y="607" width="1081" height="20"></rect>
            <rect id="Rectangle-Copy-238" fill="#FFFFFF" x="131" y="670" width="841" height="20"></rect>
            <rect id="Rectangle-Copy-239" fill="#00ADCC" x="972" y="670" width="872" height="20"></rect>
            <rect id="Rectangle-Copy-241" fill="#00ADCC" x="807" y="544.914513" width="914" height="18.1709742"></rect>
            <rect id="Rectangle-Copy-242" fill="#00ADCC" transform="translate(1323.500000, 614.500000) rotate(-90.000000) translate(-1323.500000, -614.500000) " x="1263" y="588.5" width="121" height="52"></rect>
            <rect id="Rectangle-Copy-243" fill="#00ADCC" transform="translate(998.500000, 614.500000) rotate(-90.000000) translate(-998.500000, -614.500000) " x="938" y="588.5" width="121" height="52"></rect>
            <rect id="Rectangle-Copy-246" fill="#00ADCC" transform="translate(1645.500000, 619.500000) rotate(-90.000000) translate(-1645.500000, -619.500000) " x="1585" y="593" width="121" height="53"></rect>
        </g>
    </g>
</svg>