<?xml version="1.0" encoding="UTF-8"?>
<svg width="1318px" height="354px" viewBox="0 0 1318 354" version="1.1" xmlns="http://www.w3.org/2000/svg" xmlns:xlink="http://www.w3.org/1999/xlink">
    <!-- Generator: Sketch 57.1 (83088) - https://sketch.com -->
    <title>Group 10</title>
    <desc>Created with Sketch.</desc>
    <g id="Page-1" stroke="none" stroke-width="1" fill="none" fill-rule="evenodd">
        <g id="Group-10" transform="translate(0.509998, 0.000000)">
            <path d="M47.5995012,245.015402 C78.4563013,245.015402 81.714101,270.868502 81.7193001,281.507701 C81.7193001,291.334401 78.2665004,318 47.6606013,318 C33.9560016,318 25.633401,314.1611 20.6947003,307.8158 L19.7912007,307.8158 L19.7912007,318 L-6.82121026e-13,318 L-6.82121026e-13,224.0386 L19.7912007,224.0386 L19.7912007,255.732601 L20.8962007,255.732601 C25.8531013,249.267701 34.1107019,245.0154 47.5995012,245.0154 L47.5995012,245.015402 Z M41.9133005,300.985601 C60.7113013,300.985601 62.8264018,286.751899 62.8264018,281.507699 C62.8264018,275.8293 60.8231013,262.029801 41.8782019,262.029801 C24.7949014,262.029801 21.3044006,271.629 21.3044006,281.507701 C21.3044006,292.543401 24.7988013,300.985601 41.9133005,300.985601 Z M130.917804,245.054401 C136.234803,245.054401 140.461102,246.1464 143.882703,246.899099 L140.731502,265.568399 C138.888103,265.052299 133.888302,263.943399 127.634002,263.943399 C112.966102,263.943399 108.585103,275.395099 108.585103,285.273799 L108.585103,318 L88.790002,318 L88.790002,245.054401 L108.585103,245.054401 L108.585103,255.771601 L109.818803,255.771601 C113.881303,248.7854 118.381903,245.054401 130.917802,245.054401 L130.917804,245.054401 Z M170.622401,318 L150.930002,318 L150.930002,245.4886 L170.622401,245.4886 L170.622401,318 Z M170.622401,240.3003 L150.930002,240.3003 L150.930002,222.684 L170.622401,222.684 L170.622401,240.3003 Z M239.502902,224.0386 L259.299304,224.0386 L259.299304,318 L239.508103,318 L239.508103,307.8158 L238.604604,307.8158 C233.665903,314.1611 225.343302,318 211.638703,318 C181.027603,318 177.580002,291.334401 177.580002,281.507701 C177.580002,270.868502 180.837802,245.015402 211.694602,245.015402 C225.184702,245.015402 233.438403,249.263801 238.394002,255.732601 L239.502902,255.732601 L239.502902,224.0386 Z M217.378204,300.985601 C234.495304,300.985601 237.985804,292.543401 237.985804,281.507701 C237.985804,271.629 234.491404,262.029801 217.412003,262.029801 C198.463204,262.029801 196.463803,275.8293 196.463803,281.507699 C196.463803,286.751899 198.584103,300.985601 217.378204,300.985601 Z M328.292902,245.846096 L348.093204,245.846096 L348.093204,310.976096 C348.093204,325.975497 345.290404,353.096096 309.034704,353.096096 C276.269505,353.096096 269.994405,335.397896 269.994405,324.561096 L289.595804,324.561096 C290.052104,328.493596 293.516603,336.025797 308.935903,336.025797 C322.288204,336.025797 328.298103,327.259897 328.298103,313.951798 L328.298103,308.646498 L327.394604,308.646498 C322.455903,314.991798 314.133302,318.830698 300.428703,318.830698 C269.817603,318.830698 266.370002,292.165099 266.370002,282.338399 C266.370002,271.703099 269.627802,245.846096 300.484602,245.846096 C313.974702,245.846096 322.228403,250.098401 327.184002,256.5633 L328.292902,256.5633 L328.292902,245.846096 Z M306.168204,301.816297 C323.285304,301.816297 326.775804,293.377997 326.775804,282.338397 C326.775804,272.459696 323.281404,262.860497 306.202003,262.860497 C287.253204,262.860497 285.253803,276.659996 285.253803,282.338395 C285.253803,287.582595 287.374103,301.816297 306.168204,301.816297 Z M432.563302,286.1071 L432.563308,286.112301 L374.379207,286.112301 C375.733807,295.861002 381.566907,300.693101 394.364107,300.693101 C406.181106,300.693101 412.032405,297.409302 413.851106,292.620103 L433.010507,292.620103 C430.985107,308.276002 418.321806,318.000002 394.364107,318.000002 C369.362506,318.000002 355.160006,305.430302 355.160006,281.159302 C355.160006,257.336802 369.723906,244.319901 394.364105,244.319901 C404.686104,244.319901 412.891703,246.903001 419.060203,251.1982 L419.060203,251.172198 C433.156102,260.676498 434.419702,276.108799 433.290002,286.1071 L432.563302,286.1071 Z M394.364107,261.6268 C383.428508,261.6268 377.418608,265.6503 375.135808,273.043399 L413.640509,273.043399 C412.023308,267.579499 408.447009,261.6268 394.364109,261.6268 L394.364107,261.6268 Z M512.353401,261.906299 L512.353403,287.839998 L512.348204,287.839998 L512.353403,289.301199 C512.353403,299.910499 517.120503,298.376498 536.026402,297.353399 L536.026402,316.650599 C536.026402,316.650599 532.139403,318 512.348202,318 C492.557001,318 492.557001,301.7383 492.557001,291.1329 L492.557001,261.906299 L482.820002,261.906299 L482.820002,245.2442 L492.557001,245.2442 L492.557001,224.1803 L512.353401,224.1803 L512.353401,245.2442 L536.030302,245.2442 L536.030302,261.906299 L512.353401,261.906299 Z M583.689602,243.6829 C605.806502,243.6829 624.367902,255.5818 624.367902,280.8421 C624.367902,306.4365 605.806502,318 583.689602,318 C561.571402,318 543.010002,306.071201 543.010002,280.8421 C543.010002,255.7625 561.571402,243.6829 583.689602,243.6829 Z M583.689602,299.936502 C596.082502,299.936502 604.912102,294.073502 604.912102,280.836901 C604.912102,267.391002 596.082502,261.738602 583.689602,261.738602 C571.295402,261.738602 562.465802,267.167401 562.465802,280.836901 C562.465802,294.5207 571.295402,299.936502 583.689602,299.936502 Z" id="bridgeto-copy" fill="#000000" fill-rule="nonzero"></path>
            <path d="M763.242802,245.0635 L732.262502,275.529002 L762.967202,318.000002 L738.388101,318.000002 L717.896201,289.653502 L703.692401,303.624602 L703.692401,317.785501 L684.000002,317.785501 L684.000002,224.0854 L703.692401,224.0854 L703.692401,276.7835 L735.838801,245.0635 L763.242802,245.0635 Z M833.396002,245.151901 L854.309099,245.151901 L815.7407,345.820002 L794.8315,345.820002 L805.453801,318.088401 L798.429901,318.088401 L770.320002,245.151901 L791.229202,245.151901 L812.375002,300.021002 L833.396002,245.151901 Z M901.999602,243.6829 C924.116502,243.6829 942.677902,255.5818 942.677902,280.8421 C942.677902,306.4365 924.116502,318 901.999602,318 C879.881402,318 861.320002,306.071201 861.320002,280.8421 C861.320002,255.7625 879.881402,243.6829 901.999602,243.6829 Z M901.999602,299.936502 C914.392502,299.936502 923.222102,294.073502 923.222102,280.836901 C923.222102,267.391002 914.392502,261.738602 901.999602,261.738602 C889.605402,261.738602 880.775802,267.167401 880.775802,280.836901 C880.775802,294.5207 889.605402,299.936502 901.999602,299.936502 Z M979.253401,261.906299 L979.253403,287.839998 L979.248204,287.839998 L979.253403,289.301199 C979.253403,299.910499 984.020503,298.376498 1002.9264,297.353399 L1002.9264,316.650599 C1002.9264,316.650599 999.039403,318 979.248202,318 C959.457001,318 959.457001,301.7383 959.457001,291.1329 L959.457001,261.906299 L949.720002,261.906299 L949.720002,245.2442 L959.457001,245.2442 L959.457001,224.1803 L979.253401,224.1803 L979.253401,245.2442 L1002.9303,245.2442 L1002.9303,261.906299 L979.253401,261.906299 Z M1050.5896,243.6829 C1072.7065,243.6829 1091.2679,255.5818 1091.2679,280.8421 C1091.2679,306.4365 1072.7065,318 1050.5896,318 C1028.4714,318 1009.91,306.071201 1009.91,280.8421 C1009.91,255.7625 1028.4714,243.6829 1050.5896,243.6829 Z M1050.5896,299.936502 C1062.9825,299.936502 1071.8121,294.073502 1071.8121,280.836901 C1071.8121,267.391002 1062.9825,261.738602 1050.5896,261.738602 C1038.1954,261.738602 1029.3658,267.167401 1029.3658,280.836901 C1029.3658,294.5207 1038.1954,299.936502 1050.5896,299.936502 Z" id="kyoto-copy-24" fill="#00C3E6" fill-rule="nonzero"></path>
            <rect id="Rectangle-Copy-252" fill="#00C3E6" x="396.490002" y="62.0854871" width="877" height="20"></rect>
            <rect id="Rectangle-Copy-253" fill="#000000" x="0.490001984" y="125.085487" width="653" height="20"></rect>
            <rect id="Rectangle-Copy-254" fill="#00C3E6" x="653.490002" y="125.085487" width="664" height="20"></rect>
            <rect id="Rectangle-Copy-255" fill="#00C3E6" x="474.490002" y="-8.70414851e-14" width="751" height="18.1709742"></rect>
            <rect id="Rectangle-Copy-256" fill="#00C3E6" transform="translate(1000.192481, 70.085487) rotate(-90.000000) translate(-1000.192481, -70.085487) " x="945.192481" y="48.3830077" width="110" height="43.4049587"></rect>
            <rect id="Rectangle-Copy-257" fill="#00C3E6" transform="translate(675.192481, 70.085487) rotate(-90.000000) translate(-675.192481, -70.085487) " x="620.192481" y="48.3830077" width="110" height="43.4049587"></rect>
        </g>
    </g>
</svg>